<?xml version="1.0" encoding="UTF-8" standalone="no"?>
<!-- Modified from https://github.com/apancik/public-domain-icons -->
<svg
   xmlns:dc="http://purl.org/dc/elements/1.1/"
   xmlns:cc="http://creativecommons.org/ns#"
   xmlns:rdf="http://www.w3.org/1999/02/22-rdf-syntax-ns#"
   xmlns:svg="http://www.w3.org/2000/svg"
   xmlns="http://www.w3.org/2000/svg"
   width="256"
   height="256"
   viewBox="0 0 67.733332 67.733335"
   version="1.1"
   id="svg8">
  <defs
     id="defs2" />
  <metadata
     id="metadata5">
    <rdf:RDF>
      <cc:Work
         rdf:about="">
        <dc:format>image/svg+xml</dc:format>
        <dc:type
           rdf:resource="http://purl.org/dc/dcmitype/StillImage" />
        <dc:title></dc:title>
        <cc:license
           rdf:resource="http://creativecommons.org/publicdomain/zero/1.0/" />
      </cc:Work>
      <cc:License
         rdf:about="http://creativecommons.org/publicdomain/zero/1.0/">
        <cc:permits
           rdf:resource="http://creativecommons.org/ns#Reproduction" />
        <cc:permits
           rdf:resource="http://creativecommons.org/ns#Distribution" />
        <cc:permits
           rdf:resource="http://creativecommons.org/ns#DerivativeWorks" />
      </cc:License>
    </rdf:RDF>
  </metadata>
  <g
     id="layer1">
    <path
       d="m 67.733333,57.504375 c 0,1.014871 -0.820518,1.83197 -1.840578,1.83197 H 1.8405787 C 0.82052508,59.336345 1.6666666e-7,58.519246 1.6666666e-7,57.504375 V 11.235249 C 1.6666666e-7,9.6699021 1.1697165,8.3969887 2.7694695,8.3969887 H 26.469946 c 1.603193,0 2.776348,1.2694677 2.776348,2.8348143 v 2.717919 h 36.646461 c 1.02006,0 1.840578,0.822236 1.840578,1.83197 z"
       fill-rule="evenodd"
       id="path12"
       style="stroke-width:1.72017" />
    <g
       id="g43"
       transform="matrix(0.33790503,0,0,0.33790503,13.592365,15.709033)"
       style="fill:#ffffff">
      <path
         d="M 48.732,69.783 91.04,27.476 102.78,39.216 60.472,81.526 Z"
         id="path23"
         style="fill:#ffffff" />
      <path
         d="m 51,3.424 h 19.054 v 60.21 H 51 Z"
         id="path25"
         style="fill:#ffffff" />
      <path
         d="M 60.543,81.572 18.22,39.282 29.94,27.542 72.27,69.85 Z M 9,99.575 h 103 v 17 H 9 Z"
         id="path27"
         style="fill:#ffffff" />
      <path
         d="m 5.5,68.576 h 17 v 48 h -17 z m 92,0 h 17 v 48 h -17 z"
         id="path29"
         style="fill:#ffffff" />
    </g>
  </g>
</svg>
